PathFileType	4	(X/Y/Z)	T1_P2_Vision_NoMovement_0_0-733.trc
DataRate	CameraRate	NumFrames	NumMarkers	Units	OrigDataRate	OrigDataStartFrame	OrigNumFrames
60	60	5	27	m	60	366	733
Frame#	Time	RHip			RKnee			RAnkle			RBigToe			RSmallToe			RHeel			LHip			LKnee			LAnkle			LBigToe			LSmallToe			LHeel			Neck			Head			Nose			RShoulder			RElbow			RWrist			RThumb			RIndex			RPinky			LShoulder			LElbow			LWrist			LThumb			LIndex			LPinky		
		X1	Y1	Z1	X2	Y2	Z2	X3	Y3	Z3	X4	Y4	Z4	X5	Y5	Z5	X6	Y6	Z6	X7	Y7	Z7	X8	Y8	Z8	X9	Y9	Z9	X10	Y10	Z10	X11	Y11	Z11	X12	Y12	Z12	X13	Y13	Z13	X14	Y14	Z14	X15	Y15	Z15	X16	Y16	Z16	X17	Y17	Z17	X18	Y18	Z18	X19	Y19	Z19	X20	Y20	Z20	X21	Y21	Z21	X22	Y22	Z22	X23	Y23	Z23	X24	Y24	Z24	X25	Y25	Z25	X26	Y26	Z26	X27	Y27	Z27
367	6.116666666666666	446.29013779443045	3693.7198353542904	639.9354147464628	829.8152926703729	3724.1720143898656	650.1956645891717	1205.95218795624	3720.7495025885287	657.5946112268688	1289.5444927603337	3637.6613804743747	655.8987940286767	1286.0936664025317	3691.2131364630623	607.130029267686	1282.9156547911703	3815.6816511125407	746.3679873359667	451.1295864630584	3603.284292676427	853.5519762843007	836.4438584085605	3600.950797138437	853.1437744789489	1235.2682172845643	3692.310186833271	867.7816012553069	1316.4508830240932	3567.0392865178155	813.7042469833589	1288.3561093008495	3539.568413741223	846.361929114761	1258.3359933271238	3706.2988214475395	857.4079315483054	-109.86237300029316	3595.5714700414296	758.2363155036556	-373.34601366606637	3510.6845006993567	732.9771327404427	-217.88473526372678	3452.4061759351966	710.7313183065562	-40.214201814337365	3722.052294387008	636.2363108057942	195.59343008633905	3675.712530123403	528.2866807371828	353.77615590755863	3541.340796224117	618.4061901751984	434.1807056220022	3522.410395999972	726.0287584274653	451.1788071238624	3488.674916724561	713.2379867811451	474.86462168896423	3459.1543002216886	652.7827173040962	-30.324578805166247	3481.455682188102	890.1346821825088	223.95157783871778	3463.688893735313	911.0997516153319	358.00803642869363	3456.300921712864	712.6308966899771	404.84414590874223	3479.1131258064743	621.8020682699199	449.76428717373994	3499.405225258384	624.9055429560216	463.1348093692769	3460.2194444165875	664.31979838402
368	6.133333333333334	446.2138655899338	3690.925296982226	644.1559303432838	829.9416009814046	3724.1916181511497	650.20968598723	1219.1607528053964	3739.61288994569	673.1526432709533	1302.4549756019185	3661.2221353102136	663.7241056841593	1286.2126349404932	3691.327833188083	607.1318880421721	1289.073696368372	3819.9723555316928	747.453098222706	451.10747170640553	3603.2468877853653	853.543176530638	833.304312284351	3605.5556048641356	855.8053758402161	1240.8030593707258	3694.349072686734	869.5149799884796	1316.228268122524	3566.145784632578	813.2269996406768	1288.7350121912434	3537.591959672931	851.0475364292906	1258.606814245729	3706.3609596096026	857.3533099572684	-109.7323334522683	3595.509889775067	758.335209834183	-373.2238882433408	3510.5881964221285	732.9269295168988	-217.89821669266792	3454.73167011536	706.254987782714	-40.23411249208796	3722.131855499123	636.3599559533451	195.56013009322356	3675.558794899267	528.2340679703824	358.92666324183796	3545.119457501996	619.83692781747	434.3726147785217	3522.2382481263635	726.1478048274141	448.26890297973483	3491.840519408245	715.0714113898626	474.8909800113038	3459.022814410594	652.6558484294105	-30.294174190200458	3481.4021676843718	890.1103529104621	223.98642840944774	3463.8028590683934	911.1937647815195	358.0208636140617	3456.199193581231	712.5188251290796	404.8840187039547	3478.504322015447	621.4484622063595	449.7550237882228	3498.476126235317	624.4542117482777	460.2291359023027	3447.588626682476	652.4016798842522
369	6.15	446.37165930099655	3693.711777531529	639.8751538347526	833.2691264552043	3719.3204695603363	647.6095556815121	1213.592520356174	3737.710246973463	671.4491281115588	1297.8669991214936	3660.219632679582	662.7836597478023	1286.35899189685	3691.450449614707	607.2351949007882	1289.156467290866	3819.815040591042	747.2429799752161	455.00576982940373	3598.7788990036465	850.9531706008205	836.634426088102	3601.02061910774	853.1224747925336	1243.65419157476	3688.1241047386206	865.8610255773651	1310.100040972978	3562.778932150282	812.6728691349856	1288.7795915923325	3537.6850747289354	851.362408303238	1261.1618886051579	3700.363762432277	853.8557679289295	-109.82289119401936	3595.7006571706047	758.3509835154363	-375.76902641084524	3547.2794470899917	753.0480078438276	-217.91188643503696	3452.463709744799	710.7633621377026	-40.21735556293532	3722.2845408395965	636.4286760371065	195.5704642531144	3675.6740162889732	528.2246871182834	353.8980378687669	3540.848309903286	618.2689050955928	434.3735572437629	3522.250079240394	726.1430574575367	451.77660176724004	3487.7900754107704	712.895195492205	475.38987976313973	3459.128029219355	652.686982089373	-30.297713770546654	3481.2793144167867	890.0071964960238	223.94566466576762	3463.697614650296	911.1515240665198	358.0075365450535	3456.264810134256	712.5910494130461	410.1885249789753	3482.434837455456	622.7616218305283	449.8393431031164	3498.767549497203	624.5085715199723	463.3439132522504	3459.810557382894	664.2348638187856
370	6.166666666666667	446.4569798679164	3693.9919088455763	640.0486589210348	833.3721729809225	3719.253201861628	647.7014234651846	1219.3870963248314	3739.5794735787326	673.1917211908018	1297.9675192356783	3659.279880794122	662.696577128075	1286.20375673075	3690.8539698403292	606.8854821472133	1289.1439419787591	3819.8756606398692	747.4125712650381	456.5135862817558	3607.405066131782	855.0827514707814	842.4609822067997	3605.0698931001775	854.4312887898436	1238.4156489389861	3686.2274576811947	864.1924355665487	1308.42735397202	3545.257660228693	806.5137281392056	1286.263482489259	3531.1703319391036	846.8556998969184	1261.222609953301	3700.619850424598	854.0451645392892	-109.88053130493046	3595.6976197431113	758.3080161692104	-374.90564568925015	3532.204441616356	739.2819016582243	-218.24266668997336	3452.1628666681418	704.8282457563981	-40.22198118056242	3722.4405882351125	636.4174546955521	195.4880094073315	3675.688084450103	528.2258509114995	353.8257514098627	3540.818222556956	618.1568224874403	433.9531716361922	3522.182923434595	725.9609763368825	451.34878308278786	3487.859184056737	712.9288396002523	475.30113245528236	3459.1465718251593	652.731139984869	-30.29990503954086	3481.300721801036	890.0591997348808	219.38306350838667	3462.283737544723	910.3037710679035	353.5802703517826	3454.401370127201	711.4872195641202	410.0809412015037	3482.3758241839264	622.6667656975652	449.67945513419323	3498.7300496133053	624.3380815866224	463.2251757846516	3459.8074333547206	664.2217594206319
371	6.183333333333334	446.50129672828217	3694.084612823066	640.0715665714789	833.294175674641	3719.3605431654573	647.7282193027164	1212.780678073153	3735.5033313009253	672.1229669375185	1295.0358757193355	3646.216650559392	651.1026957524409	1286.165949124549	3691.235693543359	607.0764924196897	1277.025244852911	3810.8952289657204	745.2023905079038	460.35530859035947	3606.314684778848	848.9046898591098	836.711609287328	3600.882015207381	853.051238214142	1243.700289151727	3688.3866905350887	866.0066201703476	1308.4721513084512	3545.2720383130054	806.5641694280935	1288.932156130237	3537.78963682934	851.4158447028091	1261.2175215888687	3700.7049234605565	854.0510459075207	-109.41386727926779	3611.450886218694	772.1381395687223	-374.9102815495633	3532.0153393709443	739.2460195446354	-218.1316147049438	3437.716655467007	691.8303041353457	-40.19242410001558	3722.352233754605	636.411486792336	195.560376215936	3675.5888416144144	528.1945583297456	353.81953878318956	3540.873806643568	618.2333375501761	433.7207303632	3522.132312531258	726.3147987915073	454.2936614067845	3506.8547685294275	718.3616746072917	475.31348446038623	3459.0448526662763	652.6350053202347	-30.287164133333714	3481.3632210992478	890.1121378984857	219.07045073320833	3462.557955924985	910.676742569648	353.55186361666387	3452.2388279185693	716.2706802507087	410.1647704767465	3482.1456461766106	622.3347440827447	449.3759753553187	3499.116527856766	624.1575304792449	460.3404763966719	3447.3814535871065	652.2056684909758
